HIERARCHY
ROOT Hips
{
	OFFSET 0.000000 0.000000 0.000000
	CHANNELS 6 Xposition Yposition Zposition Zrotation Yrotation Xrotation 
	JOINT LHipJoint
	{
		OFFSET 0.000000 0.000000 0.000000
		CHANNELS 3 Zrotation Yrotation Xrotation
		JOINT LeftUpLeg
		{
			OFFSET 1.363060 -1.794630 0.839290
			CHANNELS 3 Zrotation Yrotation Xrotation
			JOINT LeftLeg
			{
				OFFSET 2.448110 -6.726130 0.000000
				CHANNELS 3 Zrotation Yrotation Xrotation
				JOINT LeftFoot
				{
					OFFSET 2.562200 -7.039590 0.000000
					CHANNELS 3 Zrotation Yrotation Xrotation
					JOINT LeftToeBase
					{
						OFFSET 0.157640 -0.433110 2.322550
						CHANNELS 3 Zrotation Yrotation Xrotation
						End Site
						{
							OFFSET 0.000000 0.000000 0.000000
						}
					}
				}
			}
		}
	}
	JOINT RHipJoint
	{
		OFFSET 0.000000 0.000000 0.000000
		CHANNELS 3 Zrotation Yrotation Xrotation
		JOINT RightUpLeg
		{
			OFFSET -1.305520 -1.794630 0.839290
			CHANNELS 3 Zrotation Yrotation Xrotation
			JOINT RightLeg
			{
				OFFSET -2.542530 -6.985550 0.000000
				CHANNELS 3 Zrotation Yrotation Xrotation
				JOINT RightFoot
				{
					OFFSET -2.568260 -7.056230 0.000000
					CHANNELS 3 Zrotation Yrotation Xrotation
					JOINT RightToeBase
					{
						OFFSET -0.164730 -0.452590 2.363150
						CHANNELS 3 Zrotation Yrotation Xrotation
						End Site
						{
							OFFSET 0.000000 0.000000 0.000000
						}
					}
				}
			}
		}
	}
	JOINT LowerBack
	{
		OFFSET 0.000000 0.000000 0.000000
		CHANNELS 3 Zrotation Yrotation Xrotation
		JOINT Spine
		{
			OFFSET 0.028270 2.035590 -0.193380
			CHANNELS 3 Zrotation Yrotation Xrotation
			JOINT Spine1
			{
				OFFSET 0.056720 2.048850 -0.042750
				CHANNELS 3 Zrotation Yrotation Xrotation
				JOINT Neck
				{
					OFFSET 0.000000 0.000000 0.000000
					CHANNELS 3 Zrotation Yrotation Xrotation
					JOINT Neck1
					{
						OFFSET -0.054170 1.746240 0.172020
						CHANNELS 3 Zrotation Yrotation Xrotation
						JOINT Head
						{
							OFFSET 0.104070 1.761360 -0.123970
							CHANNELS 3 Zrotation Yrotation Xrotation
							End Site
							{
								OFFSET 0.000000 0.000000 0.000000
							}
						}
					}
				}
				JOINT LeftShoulder
				{
					OFFSET 0.000000 0.000000 0.000000
					CHANNELS 3 Zrotation Yrotation Xrotation
					JOINT LeftArm
					{
						OFFSET 3.362410 1.200890 -0.311210
						CHANNELS 3 Zrotation Yrotation Xrotation
						JOINT LeftForeArm
						{
							OFFSET 4.983000 -0.000000 -0.000000
							CHANNELS 3 Zrotation Yrotation Xrotation
							JOINT LeftHand
							{
								OFFSET 3.483560 -0.000000 -0.000000
								CHANNELS 3 Zrotation Yrotation Xrotation
								JOINT LeftFingerBase
								{
									OFFSET 0.000000 0.000000 0.000000
									CHANNELS 3 Zrotation Yrotation Xrotation
									JOINT LeftHandIndex1
									{
										OFFSET 0.715260 -0.000000 -0.000000
										CHANNELS 3 Zrotation Yrotation Xrotation
										End Site
										{
											OFFSET 0.000000 0.000000 0.000000
										}
									}
								}
								JOINT LThumb
								{
									OFFSET 0.000000 0.000000 0.000000
									CHANNELS 3 Zrotation Yrotation Xrotation
									End Site
									{
										OFFSET 0.000000 0.000000 0.000000
									}
								}
							}
						}
					}
				}
				JOINT RightShoulder
				{
					OFFSET 0.000000 0.000000 0.000000
					CHANNELS 3 Zrotation Yrotation Xrotation
					JOINT RightArm
					{
						OFFSET -3.136600 1.374050 -0.404650
						CHANNELS 3 Zrotation Yrotation Xrotation
						JOINT RightForeArm
						{
							OFFSET -5.241900 -0.000000 -0.000000
							CHANNELS 3 Zrotation Yrotation Xrotation
							JOINT RightHand
							{
								OFFSET -3.444170 -0.000000 -0.000000
								CHANNELS 3 Zrotation Yrotation Xrotation
								JOINT RightFingerBase
								{
									OFFSET 0.000000 0.000000 0.000000
									CHANNELS 3 Zrotation Yrotation Xrotation
									JOINT RightHandIndex1
									{
										OFFSET -0.622530 -0.000000 -0.000000
										CHANNELS 3 Zrotation Yrotation Xrotation
										End Site
										{
											OFFSET 0.000000 0.000000 0.000000
										}
									}
								}
								JOINT RThumb
								{
									OFFSET 0.000000 0.000000 0.000000
									CHANNELS 3 Zrotation Yrotation Xrotation
									End Site
									{
										OFFSET 0.000000 0.000000 0.000000
									}
								}
							}
						}
					}
				}
			}
		}
	}
}
MOTION
Frames: 7
Frame Time: 0.008333
0.202988 17.191096 -0.906078 160.381963 86.498474 158.315429 -11.198193 5.332072 -0.173107 -1.406052 13.412651 5.919361 0.064120 2.681210 37.070863 1.316750 -3.214511 28.127461 -2.486600 0.000000 -71.806700 10.092249 -1.034468 2.110147 3.948477 -2.036187 -16.163356 1.846441 -0.445201 12.640081 -0.144270 -0.659716 2.778791 -0.520200 -0.000001 -53.827100 3.689140 -5.786043 -3.859657 0.635146 -6.181110 -2.833632 -4.787201 -6.162520 3.100064 9.266296 -22.467184 -10.737694 -2.130027 -0.124583 -0.750100 0.000000 0.000000 0.000000 2.844581 14.208282 0.858223 -41.378327 -1.360131 3.389371 -2.141194 -49.974582 0.002129 0.017135 0.149394 0.001239 -0.118272 0.134197 -0.000000 0.000000 0.000000 0.000000 0.000000 0.000000 0.000000 15.146679 -21.333308 -0.472439 69.777259 -20.572303 -18.958856 4.836744 17.577629 0.005592 6.694790 1.993164 0.115884 0.101590 -0.012832 -0.000000 0.000000 0.000000 0.000000 0.000000 0.000000 0.000000 
0.372455 17.185774 -0.894111 164.320283 86.492464 162.130042 -11.325131 5.309192 -0.254323 -0.704117 14.186888 4.650414 0.162193 2.726579 39.440075 1.489929 -2.182821 29.052824 -2.034800 -0.000000 -66.952100 10.085198 -1.076704 1.975154 4.307809 -2.647278 -15.984581 1.830939 -0.509217 13.636422 -0.164598 -0.738247 2.496964 -0.520200 0.000000 -52.262400 3.939400 -5.652748 -3.712946 0.663836 -6.062505 -2.823564 -4.823802 -6.042866 3.068072 9.321838 -22.368599 -10.762204 -2.135257 -0.124899 -0.757295 0.000000 0.000000 0.000000 2.810054 14.237995 0.845832 -41.962925 -0.849461 3.682913 -2.186854 -49.527502 0.002198 -0.023666 0.153916 0.001234 -0.120073 0.127318 -0.000000 0.000000 0.000000 0.000000 0.000000 0.000000 0.000000 15.158039 -21.147693 -0.438987 69.548540 -19.868808 -18.838222 4.821939 17.502474 0.005757 6.622543 2.006818 0.115389 0.101647 -0.014079 -0.000000 0.000000 0.000000 0.000000 0.000000 0.000000 0.000000 
0.538313 17.179407 -0.882858 167.635987 86.455771 165.348681 -11.440004 5.263875 -0.350175 -0.132717 14.912356 3.316092 0.250865 2.781358 41.812753 1.656914 -0.701576 29.497683 -1.283500 -0.000000 -61.882600 10.069408 -1.111290 1.861366 4.613271 -3.127226 -15.814470 1.812904 -0.568146 14.651008 -0.189893 -0.821133 2.053203 -0.515100 0.000000 -50.483900 4.146939 -5.521758 -3.562846 0.683611 -5.942511 -2.811368 -4.860780 -5.922218 3.037432 9.383876 -22.248067 -10.786777 -2.141331 -0.125250 -0.764565 0.000000 0.000000 0.000000 2.778009 14.269309 0.833296 -42.602056 -0.309010 3.947258 -2.234779 -49.056134 0.002199 -0.044642 0.166881 0.001232 -0.122048 0.120283 -0.000000 0.000000 0.000000 0.000000 0.000000 0.000000 0.000000 15.171380 -20.941180 -0.402628 69.324728 -19.073744 -18.655257 4.805650 17.410415 0.005913 6.550405 2.019170 0.114895 0.101614 -0.015327 -0.000000 0.000000 0.000000 0.000000 0.000000 0.000000 0.000000 
0.700775 17.172367 -0.872273 170.340667 86.382845 167.981759 -11.539543 5.197613 -0.458431 0.301379 15.571156 1.930429 0.334920 2.847856 44.151706 1.816440 1.184246 29.423425 -0.276000 -0.000000 -56.935600 10.047689 -1.139280 1.770991 4.865424 -3.460253 -15.626962 1.792886 -0.620439 15.647720 -0.222081 -0.921860 1.462156 -0.506700 0.000000 -48.557900 4.312040 -5.396634 -3.413376 0.695116 -5.824910 -2.797802 -4.897248 -5.804355 3.007973 9.447772 -22.103804 -10.808412 -2.149069 -0.125756 -0.771093 0.000000 0.000000 0.000000 2.741026 14.301907 0.821271 -43.287502 0.259913 4.184817 -2.285353 -48.559891 0.002139 -0.054006 0.191925 0.001224 -0.124112 0.113027 -0.000000 0.000000 0.000000 0.000000 0.000000 0.000000 0.000000 15.185597 -20.713501 -0.365550 69.104791 -18.200376 -18.418852 4.788124 17.314433 0.006061 6.483163 2.028516 0.114301 0.101474 -0.016583 -0.000000 0.000000 0.000000 0.000000 0.000000 0.000000 0.000000 
0.860155 17.165111 -0.862309 172.464618 86.267494 170.056161 -11.621223 5.113000 -0.575626 0.596995 16.149282 0.507414 0.417561 2.926289 46.419458 1.968294 3.388219 28.817136 0.903400 0.000001 -52.355000 10.023543 -1.161451 1.702578 5.066453 -3.652090 -15.400374 1.771743 -0.664896 16.592875 -0.262199 -1.048720 0.747671 -0.495700 0.000000 -46.565300 4.435311 -5.279795 -3.266930 0.699051 -5.712313 -2.783136 -4.931934 -5.691892 2.980455 9.510141 -21.941807 -10.825610 -2.158657 -0.126459 -0.776477 0.000000 0.000000 0.000000 2.693581 14.338535 0.809771 -44.013455 0.848152 4.399446 -2.339115 -48.032075 0.002034 -0.060665 0.231311 0.001317 -0.126170 0.105513 0.000000 0.000000 0.000000 0.000000 0.000000 0.000000 0.000000 15.201034 -20.472310 -0.330189 68.881515 -17.256984 -18.107772 4.769019 17.225777 0.006207 6.416335 2.040467 0.113907 0.101250 -0.017833 -0.000000 0.000000 0.000000 0.000000 0.000000 0.000000 0.000000 
1.016881 17.158177 -0.852997 174.059843 86.105081 171.619350 -11.683741 5.013687 -0.697174 0.758778 16.639636 -0.939551 0.499831 3.014841 48.578521 2.112637 5.796598 27.688891 2.144200 0.000001 -48.273300 10.000234 -1.178973 1.652344 5.220527 -3.726488 -15.118470 1.750508 -0.700629 17.456591 -0.310368 -1.205137 -0.058455 -0.481900 -0.000000 -44.594901 4.519257 -5.172148 -3.125791 0.696184 -5.605965 -2.767954 -4.964342 -5.586038 2.954597 9.567175 -21.763065 -10.835591 -2.170978 -0.127484 -0.779956 0.000000 0.000000 0.000000 2.630773 14.378618 0.798691 -44.774033 1.450306 4.595690 -2.396585 -47.466004 0.001897 -0.073334 0.285293 0.001305 -0.128138 0.097695 0.000000 0.000000 0.000000 0.000000 0.000000 0.000000 0.000000 15.218564 -20.219070 -0.298598 68.651413 -16.260645 -17.730023 4.748363 17.159871 0.006353 6.351827 2.055016 0.113613 0.100946 -0.019085 -0.000000 0.000000 0.000000 0.000000 0.000000 0.000000 0.000000 
1.171410 17.152028 -0.844451 175.188979 85.892474 172.728962 -11.726877 4.903779 -0.818130 0.795904 17.042339 -2.398658 0.580505 3.110132 50.593081 2.249250 8.282943 26.066163 3.327100 0.000000 -44.675900 9.980583 -1.193300 1.614947 5.331934 -3.720515 -14.772182 1.730082 -0.727157 18.214950 -0.365823 -1.389979 -0.919776 -0.464600 -0.000000 -42.739600 4.566185 -5.073297 -2.991723 0.687245 -5.505749 -2.752609 -4.993467 -5.486669 2.930852 9.616138 -21.574504 -10.836901 -2.186024 -0.128858 -0.781130 0.000000 0.000000 0.000000 2.549952 14.423372 0.787299 -45.566903 2.057166 4.776973 -2.458247 -46.851782 0.001741 -0.100035 0.352070 0.001291 -0.129937 0.089572 0.000000 0.000000 0.000000 0.000000 0.000000 0.000000 0.000000 15.238181 -19.961169 -0.272427 68.407150 -15.222409 -17.275171 4.725932 17.126286 0.006509 6.284976 2.077761 0.113720 0.100599 -0.020340 -0.000000 0.000000 0.000000 0.000000 0.000000 0.000000 0.000000 
